HIERARCHY
ROOT hip
{
  OFFSET 0 0 0
  CHANNELS 6 Xposition Yposition Zposition Zrotation Yrotation Xrotation
  JOINT abdomen
  {
    OFFSET 0 20.6881 -0.73152
    CHANNELS 3 Zrotation Xrotation Yrotation
    JOINT chest
    {
      OFFSET 0 11.7043 -0.48768
      CHANNELS 3 Zrotation Xrotation Yrotation
      JOINT neck
      {
        OFFSET 0 22.1894 -2.19456
        CHANNELS 3 Zrotation Xrotation Yrotation
        JOINT head
        {
          OFFSET -0.24384 7.07133 1.2192
          CHANNELS 3 Zrotation Xrotation Yrotation
          JOINT leftEye
          {
            OFFSET 4.14528 8.04674 8.04672
            CHANNELS 3 Zrotation Xrotation Yrotation
            End Site
            {
              OFFSET 1 0 0
            }
          }
          JOINT rightEye
          {
            OFFSET -3.6576 8.04674 8.04672
            CHANNELS 3 Zrotation Xrotation Yrotation
            End Site
            {
              OFFSET 1 0 0
            }
          }
        }
      }
      JOINT rCollar
      {
        OFFSET -2.68224 19.2634 -4.8768
        CHANNELS 3 Zrotation Xrotation Yrotation
        JOINT rShldr
        {
          OFFSET -8.77824 -1.95073 1.46304
          CHANNELS 3 Zrotation Xrotation Yrotation
          JOINT rForeArm
          {
            OFFSET -28.1742 -1.7115 0.48768
            CHANNELS 3 Zrotation Xrotation Yrotation
            JOINT rHand
            {
              OFFSET -22.5879 0.773209 7.07136
              CHANNELS 3 Zrotation Xrotation Yrotation
              JOINT rThumb1
              {
                OFFSET -1.2192 -0.487915 3.41376
                CHANNELS 3 Zrotation Xrotation Yrotation
                JOINT rThumb2
                {
                  OFFSET -3.37035 -0.52449 3.41376
                  CHANNELS 3 Zrotation Xrotation Yrotation
                  End Site
                  {
                    OFFSET -1.78271 -1.18214 1.43049
                  }
                }
              }
              JOINT rIndex1
              {
                OFFSET -7.75947 0.938293 5.60832
                CHANNELS 3 Zrotation Xrotation Yrotation
                JOINT rIndex2
                {
                  OFFSET -2.54057 -0.884171 1.56538
                  CHANNELS 3 Zrotation Xrotation Yrotation
                  End Site
                  {
                    OFFSET -1.62519 -0.234802 1.16502
                  }
                }
              }
              JOINT rMid1
              {
                OFFSET -8.24714 1.18213 3.41376
                CHANNELS 3 Zrotation Xrotation Yrotation
                JOINT rMid2
                {
                  OFFSET -3.10165 -0.590103 1.0647
                  CHANNELS 3 Zrotation Xrotation Yrotation
                  End Site
                  {
                    OFFSET -2.48547 -0.328903 0.83742
                  }
                }
              }
              JOINT rRing1
              {
                OFFSET -8.82822 0.546677 1.51678
                CHANNELS 3 Zrotation Xrotation Yrotation
                JOINT rRing2
                {
                  OFFSET -2.60934 -0.819778 -0.0198488
                  CHANNELS 3 Zrotation Xrotation Yrotation
                  End Site
                  {
                    OFFSET -2.33842 -0.294052 0.168128
                  }
                }
              }
              JOINT rPinky1
              {
                OFFSET -8.27202 -0.0477905 -0.4584
                CHANNELS 3 Zrotation Xrotation Yrotation
                JOINT rPinky2
                {
                  OFFSET -1.82734 -0.647385 -0.700984
                  CHANNELS 3 Zrotation Xrotation Yrotation
                  End Site
                  {
                    OFFSET -1.69225 -0.51767 -0.607171
                  }
                }
              }
            }
          }
        }
      }
      JOINT lCollar
      {
        OFFSET 2.68224 19.2634 -4.8768
        CHANNELS 3 Zrotation Xrotation Yrotation
        JOINT lShldr
        {
          OFFSET 8.77824 -1.95073 1.46304
          CHANNELS 3 Zrotation Xrotation Yrotation
          JOINT lForeArm
          {
            OFFSET 28.1742 -1.7115 0.48768
            CHANNELS 3 Zrotation Xrotation Yrotation
            JOINT lHand
            {
              OFFSET 22.5879 0.773209 7.07136
              CHANNELS 3 Zrotation Xrotation Yrotation
              JOINT lThumb1
              {
                OFFSET 1.2192 -0.487915 3.41376
                CHANNELS 3 Zrotation Xrotation Yrotation
                JOINT lThumb2
                {
                  OFFSET 3.37035 -0.52449 3.41376
                  CHANNELS 3 Zrotation Xrotation Yrotation
                  End Site
                  {
                    OFFSET 1.78271 -1.18214 1.43049
                  }
                }
              }
              JOINT lIndex1
              {
                OFFSET 7.75947 0.938293 5.60832
                CHANNELS 3 Zrotation Xrotation Yrotation
                JOINT lIndex2
                {
                  OFFSET 2.54057 -0.884171 1.56538
                  CHANNELS 3 Zrotation Xrotation Yrotation
                  End Site
                  {
                    OFFSET 1.62519 -0.234802 1.16502
                  }
                }
              }
              JOINT lMid1
              {
                OFFSET 8.24714 1.18213 3.41376
                CHANNELS 3 Zrotation Xrotation Yrotation
                JOINT lMid2
                {
                  OFFSET 3.10165 -0.590103 1.0647
                  CHANNELS 3 Zrotation Xrotation Yrotation
                  End Site
                  {
                    OFFSET 2.48547 -0.328903 0.83742
                  }
                }
              }
              JOINT lRing1
              {
                OFFSET 8.82822 0.546677 1.51678
                CHANNELS 3 Zrotation Xrotation Yrotation
                JOINT lRing2
                {
                  OFFSET 2.60934 -0.819778 -0.0198488
                  CHANNELS 3 Zrotation Xrotation Yrotation
                  End Site
                  {
                    OFFSET 2.33842 -0.294052 0.168128
                  }
                }
              }
              JOINT lPinky1
              {
                OFFSET 8.27202 -0.0477905 -0.4584
                CHANNELS 3 Zrotation Xrotation Yrotation
                JOINT lPinky2
                {
                  OFFSET 1.82734 -0.647385 -0.700984
                  CHANNELS 3 Zrotation Xrotation Yrotation
                  End Site
                  {
                    OFFSET 1.69225 -0.51767 -0.607171
                  }
                }
              }
            }
          }
        }
      }
    }
  }
  JOINT rButtock
  {
    OFFSET -8.77824 4.35084 1.2192
    CHANNELS 3 Zrotation Xrotation Yrotation
    JOINT rThigh
    {
      OFFSET 0 -1.70687 -2.19456
      CHANNELS 3 Zrotation Xrotation Yrotation
      JOINT rShin
      {
        OFFSET 0 -36.8199 0.73152
        CHANNELS 3 Zrotation Xrotation Yrotation
        JOINT rFoot
        {
          OFFSET 0.73152 -45.1104 -5.12064
          CHANNELS 3 Zrotation Xrotation Yrotation
          End Site
          {
            OFFSET -1.1221 -3.69964 12.103
          }
        }
      }
    }
  }
  JOINT lButtock
  {
    OFFSET 8.77824 4.35084 1.2192
    CHANNELS 3 Zrotation Xrotation Yrotation
    JOINT lThigh
    {
      OFFSET 0 -1.70687 -2.19456
      CHANNELS 3 Zrotation Xrotation Yrotation
      JOINT lShin
      {
        OFFSET 0 -36.8199 0.73152
        CHANNELS 3 Zrotation Xrotation Yrotation
        JOINT lFoot
        {
          OFFSET -0.73152 -45.1104 -5.12064
          CHANNELS 3 Zrotation Xrotation Yrotation
          End Site
          {
            OFFSET 1.1221 -3.69964 12.103
          }
        }
      }
    }
  }
}
MOTION
Frames:	4
Frame Time:	0.03333
2.1399221383035183 53.84818911552429 -30.27872908860445 -0.2353217881349187 51.012777288046806 3.825450642793449 -5.500475562676798 12.440753294844992 -4.144647153936124 6.5543609450050715 -11.272743135448621 -1.2685171400850486 -10.087240861587848 20.64616263442573 -15.250383199554648 12.216397802309352 -29.325195220301723 -26.83638698487038 -0.01450158550542133 -0.2144125513730998 0.22158575744570735 -0.18598989308085534 -0.4239474939051643 -0.3018840093091028 -0.09802751529825769 -0.17365886698847002 0.21077590252689116 54.054216129223875 -3.13558638213994 28.470765875889807 -27.780343033828238 -31.329500571863623 68.8577461551615 -1.003001326785325 23.47469423388975 3.9009524076524165 0.02683453258851072 -0.2452104079492162 -0.22252204031074124 0.09904777480552834 0.02437163574291288 -0.032745047458951834 0.055143959150921074 -0.152041398306659 0.08276641809321623 7.81482667944085 5.520575955630499 0.5437697159581095 -0.04434180153513434 -0.3220692993797532 0.08090174976937631 2.8122356218780165 0.744543820301722 -0.0697734106000818 -0.018168996883321496 0.2622127765057878 0.19094999780045976 10.234118103273449 0.7060969522679846 -0.091473681985366 0.0050228570826039085 -0.022451258688655037 0.44716053212968726 2.229594872466541 -1.0965198500143165 -0.20259637746983064 0.22600903864501787 -0.03847082705668526 -0.08320088215745251 -88.83457415658806 77.92773193893984 14.260174817084756 27.347756417840063 -41.14107414477611 -85.68516710010601 26.912400160143452 -76.38588503570116 34.090181072112735 0.3471515682810383 -0.0019482047390403559 0.021614347071916912 0.21341022111240043 0.30745015991541363 -0.09572008529755698 -0.078108976131208 -0.020063333841368665 0.016822649204035624 -7.24091064292042 5.891175189806221 -0.9747567870200298 0.0885696242884941 -0.04996299386120195 -0.3858285549928669 -2.8971199322224654 0.9714952649696429 0.12535875738590171 -0.1191189793726984 -0.011617618169662782 0.24806742805426493 -10.36895969786784 0.8325695907775538 -0.32390742067928 0.040099360266270506 -0.007468918579114725 -0.19822361565799443 -2.1564123837176163 -0.7180838809005041 0.5512996793529312 -0.10853709535764458 -0.05521482236355996 -0.14478626998465097 -58.850876983310826 -47.8557750612077 -62.770599604576084 -2.6161387563728344 70.12290892531212 2.9115083660393317 1.3683535882963018 -2.2158743030844548 6.0958823625338505 0.008904432243580998 0.22177644245351236 -0.04549706400021853 35.25883326929109 -20.8064740044351 35.53798993085868 2.4026253353709435 72.16200726050607 -5.138676173472991 7.327624163301963 -21.824892775724432 22.663971269976745
2.785221580415964 53.642189502716064 -30.280538834631443 -0.48986714368883827 51.18176641339667 3.5707548096343777 -5.450302273694354 12.380643361280647 -4.154366513125052 6.586495704389512 -11.242534062523301 -1.2739533303341442 -10.073856252135561 20.66804656052645 -15.309664118908481 12.296196609929902 -29.229425722854387 -26.918330471890314 -0.007083573179964357 -0.22117764030258588 0.20608330910304115 -0.21342035967444967 -0.41697600519669686 -0.314996158246529 -0.05204454737161622 -0.18243181809052827 0.20800879545896328 54.304911392520026 -3.1912003436831227 28.157289221290192 -27.77937826960797 -31.33004357190264 68.83367656852636 -0.9756622139718796 23.378200736390394 3.881920085530176 0.01018808092072027 -0.2520994007791145 -0.27673154420583995 0.08493516323725395 0.05758833978056583 -0.017173283368380577 0.06614611324334224 -0.16545823771409124 0.0648674804863747 7.817963443817178 5.534633765602855 0.5772610149447381 -0.04410317180100702 -0.3358568899930702 0.09437387102040333 2.802182437193404 0.7437164602776513 -0.05660224455935846 -0.02856731956443122 0.2600502745815383 0.21351651593135876 10.231143555889908 0.7075910561489249 -0.11362846777536018 0.025550350302842542 -0.029035134161724204 0.4465126246538881 2.2440518216185192 -1.1034503575877637 -0.19595529916246263 0.22413660631708235 -0.03157532420273426 -0.10327096614671186 -88.99296624344066 77.85054397112953 14.310924830165243 27.33562600187412 -41.16855882599624 -85.72315661226962 27.047467150980452 -76.47751202341688 34.23136791244607 0.36493204479446245 0.006550685022571136 0.008870814906259843 0.19275210052428532 0.32283345347357484 -0.0994650566751338 -0.06498957011778866 -0.010409928666613458 0.017390408678792935 -7.224908363468726 5.928351482571777 -0.9874195308544103 0.06365373452652227 -0.07020425946653473 -0.38133210272402995 -2.872567536590385 0.9865559388112267 0.11028410300086046 -0.1345731361434985 -0.03469629376660696 0.2339624470879539 -10.380558212852169 0.8530208846998644 -0.3161449106875605 0.04825173798942285 0.010493411720960995 -0.1887273048341495 -2.146987149549822 -0.7402118261814942 0.517466337299273 -0.08861492765259832 -0.04924737146308444 -0.14696894231129315 -58.977433558441994 -47.66490200975711 -63.15961985894333 -2.7178949146276845 70.17602730648731 2.923021930545858 1.4007205741125228 -2.2256687943542532 6.274852101808402 -0.006381157592937304 0.25401569572812627 -0.05386127096913383 35.657709486630665 -20.865696867180986 35.854931198914784 2.336867475693234 72.33231119727117 -5.06765330516226 7.322265026124442 -21.960024653358552 22.61951186112184
3.39238615706563 53.415656089782715 -30.225020833313465 -0.7278270923906743 51.37545350278531 3.3318456780813213 -5.395521595229913 12.321780791013477 -4.1648051766109475 6.6188029260504955 -11.214207560487965 -1.2734434140239204 -10.057580765117068 20.687430637390946 -15.36108349052763 12.365625482843082 -29.1225298472491 -26.988932429793444 -0.0009137779253272137 -0.2216963077926837 0.18115920176972417 -0.24694122057357976 -0.4082862970251481 -0.33249504953924874 -0.006939365475027173 -0.1888703386003231 0.20912198289154313 54.528880125593915 -3.27554080021491 27.850168057713276 -27.78819604382646 -31.32623232634577 68.80129464167133 -0.9391382042720595 23.250052727182613 3.859174701820387 -0.0057051289476647135 -0.25403138381887613 -0.32984565651279785 0.07263308540756185 0.09296146260523874 -0.009164032792894374 0.07001797672909321 -0.17504184689326538 0.05082845353423661 7.810034447964441 5.555909377980622 0.6099178569138616 -0.0334683538198856 -0.3395898018178937 0.10570600862710074 2.7956292975715997 0.7464029657772876 -0.04444194651579701 -0.04924593072005639 0.2530637381125557 0.24040995890146083 10.227244371647476 0.7070969346511567 -0.13917508281850036 0.05004447588356608 -0.027412750790434613 0.44310788207434254 2.2621360281065974 -1.110244688264634 -0.2000226768132052 0.22017114789536102 -0.027036663499260784 -0.12605519655740502 -89.19750991851502 77.73663007615205 14.429971612303982 27.321412378211324 -41.18098977028566 -85.7513379727851 27.19126824621861 -76.5853128990872 34.39065133898535 0.3670944399970062 0.014289502795607145 -0.006056456803097244 0.17766837479425263 0.342220945432656 -0.10397639662192723 -0.04675595324161651 -0.001750422737800885 0.018623684710803362 -7.209210881208745 5.966622740038651 -0.9940981752022133 0.04507604687091071 -0.09766845011915601 -0.37347599779634016 -2.848343416925289 0.9953321982861643 0.08834596227360263 -0.1492932610219338 -0.05320941479022074 0.21642188096912648 -10.401736921921085 0.8723351655687795 -0.3083032131901512 0.05096020148002381 0.026319386914703667 -0.17775332527205465 -2.1390765098304776 -0.7618886054512932 0.479449077492159 -0.06730601810262792 -0.03888384005805946 -0.15841665952535186 -59.08735862294418 -47.46130773097737 -63.53806015028623 -2.813391631395041 70.2249997628363 2.9249260592204105 1.4511521296229584 -2.242010021943509 6.48813841902039 -0.02446525735930966 0.286119612539596 -0.07007742071921348 36.06915666713765 -20.917389446366936 36.16127884356819 2.264706740555461 72.47929003802066 -4.98453886758649 7.302793010574382 -22.07343823697932 22.541108119639265
3.9591017179191113 53.169965744018555 -30.12708704918623 -0.9479709195293553 51.594931386479914 3.1049346275790386 -5.329445491425563 12.264637720869858 -4.174600094767569 6.65151184821204 -11.185852883922303 -1.266517815648939 -10.039628466657335 20.708563242682963 -15.407173607046875 12.421920755755973 -29.009316046661556 -27.050257283256403 0.004611951834918884 -0.21582693413982135 0.14844505024459606 -0.28550788372205677 -0.3976186087586461 -0.3535103143157615 0.03665645133669484 -0.1931654603712033 0.21274403754448618 54.72251598856377 -3.389311688106635 27.559664744387003 -27.803507620398335 -31.318083910665948 68.7587084121963 -0.8953199794254889 23.088404347643216 3.8332780395822836 -0.019535194799882718 -0.2511343163937329 -0.37694151838732826 0.060121726312832316 0.1273792127197561 -0.009004163677633762 0.06752581145568481 -0.18337681211479656 0.04036887259400833 7.7920471447852115 5.581681389266372 0.6399474239300573 -0.014319918481754857 -0.3320673089424767 0.11364311532947868 2.792187095673325 0.7541223601998714 -0.03439025593506543 -0.07924817697957208 0.2430536689970789 0.2680623532822277 10.221545432558747 0.7041287905699631 -0.16645400458988505 0.0781372573832401 -0.017772792550607867 0.4387829849475493 2.284803291527754 -1.1149664834152284 -0.21399233465658535 0.21331353124696245 -0.02325487313318935 -0.15112647312299463 -89.45479631436024 77.58719919749052 14.63252087214071 27.307651254581042 -41.18073363819179 -85.77409616309957 27.341428247574047 -76.7064599643957 34.56046008703562 0.35500468500096627 0.01929133570217211 -0.022412838874573716 0.1679650238611917 0.3659511570433959 -0.10908206974821755 -0.023540887304683636 0.006922316682528587 0.02034382516458876 -7.194685630165067 6.005625681520363 -0.9939060761318067 0.03497611807916592 -0.12890397241068213 -0.362657458398716 -2.824709254849752 0.9978886100264531 0.05978339182507868 -0.16269270479132364 -0.06645710029398938 0.19465951089129072 -10.432530829794088 0.8918961870214613 -0.3010085711565776 0.04895868924894562 0.038969751031213536 -0.16646899898954734 -2.1325707546460406 -0.7819295010540214 0.43831340944211095 -0.04551323233864442 -0.025801466476546294 -0.18140515528091072 -59.17845968609381 -47.24852001757479 -63.90412413885306 -2.900514109353139 70.26792750176983 2.917566530389722 1.521590803316242 -2.257250735302746 6.741796276869031 -0.046412042544735785 0.31802513370001806 -0.094361091096136 36.495391207197706 -20.961966675985025 36.44597478855266 2.1887960181199393 72.61241042494422 -4.89193815102722 7.274244527391021 -22.168294196625165 22.435445093179165
